<svg width="13814" height="13814" viewBox="0 0 13814 13814" fill="none" xmlns="http://www.w3.org/2000/svg">
<path fill-rule="evenodd" clip-rule="evenodd" d="M1294.88 2158.52C1294.88 2039.31 1391.52 1942.67 1510.73 1942.67H12302.9C12422.1 1942.67 12518.7 2039.31 12518.7 2158.52V8202.13C12518.7 8321.33 12615.4 8417.97 12734.6 8417.97C12853.8 8417.97 12950.4 8321.33 12950.4 8202.13V2158.52C12950.4 1800.89 12660.5 1510.99 12302.9 1510.99H1510.73C1153.11 1510.99 863.197 1800.89 863.197 2158.52V9713.03C863.197 10070.7 1153.11 10360.6 1510.73 10360.6H4785.22C4761.36 10428.1 4748.38 10500.7 4748.38 10576.4V11439.8C4748.38 11797.4 5038.29 12087.3 5395.91 12087.3H8201.87C8559.49 12087.3 8849.4 11797.4 8849.4 11439.8V10360.6H9281.09C9400.29 10360.6 9496.93 10263.9 9496.93 10144.7C9496.93 10025.5 9400.29 9928.87 9281.09 9928.87H1510.73C1391.52 9928.87 1294.88 9832.24 1294.88 9713.03V9281.34H4856.3C4975.51 9281.34 5072.14 9184.71 5072.14 9065.5C5072.14 8946.29 4975.51 8849.66 4856.3 8849.66H1294.88V2158.52ZM5395.91 10360.6C5276.7 10360.6 5180.06 10457.2 5180.06 10576.4V11439.8C5180.06 11559 5276.7 11655.6 5395.91 11655.6H8201.87C8321.08 11655.6 8417.71 11559 8417.71 11439.8V10360.6H5395.91Z" fill="#00BBFF"/>
<path d="M8042.88 5211.82C8119.88 5120.82 8108.53 4984.63 8017.53 4907.63C7926.53 4830.63 7790.33 4841.98 7713.33 4932.98L6701.14 6129.21L6216.11 5482.5C6144.59 5387.14 6009.3 5367.81 5913.93 5439.33C5818.56 5510.86 5799.24 5646.15 5870.76 5741.52L6355.79 6388.22C6522.17 6610.06 6851.56 6619.74 7030.68 6408.05L8042.88 5211.82Z" fill="#00BBFF"/>
<path fill-rule="evenodd" clip-rule="evenodd" d="M6906.81 3237.73C5595.53 3237.73 4532.53 4300.73 4532.53 5612.01C4532.53 6923.28 5595.53 7986.28 6906.81 7986.28C8218.09 7986.28 9281.09 6923.28 9281.09 5612.01C9281.09 4300.73 8218.09 3237.73 6906.81 3237.73ZM4964.22 5612.01C4964.22 4539.15 5833.95 3669.42 6906.81 3669.42C7979.67 3669.42 8849.4 4539.15 8849.4 5612.01C8849.4 6684.87 7979.67 7554.6 6906.81 7554.6C5833.95 7554.6 4964.22 6684.87 4964.22 5612.01Z" fill="#00BBFF"/>
<path fill-rule="evenodd" clip-rule="evenodd" d="M3669.16 5612.01C3669.16 3823.9 5118.71 2374.36 6906.81 2374.36C8694.91 2374.36 10144.5 3823.9 10144.5 5612.01C10144.5 6232.32 9970.01 6811.9 9667.49 7304.34L10249.2 7886.06C10357.1 7993.95 10419 8130.44 10434.8 8271.13C10575.4 8270.47 10716.8 8315.44 10835.2 8407.53L12578.9 9763.76C13054.5 10133.7 13098.3 10836.7 12672.2 11262.8C12263.7 11671.4 11595.1 11650.5 11212.8 11217.2L9745.22 9553.96C9640.72 9435.52 9587.07 9288.98 9583.43 9141.73C9436.59 9129.23 9293.2 9066.79 9180.84 8954.43L8599.12 8372.7C8106.68 8675.21 7527.12 8849.66 6906.81 8849.66C5118.71 8849.66 3669.16 7400.11 3669.16 5612.01ZM6906.81 2806.05C5357.12 2806.05 4100.85 4062.32 4100.85 5612.01C4100.85 7161.7 5357.12 8417.97 6906.81 8417.97C8456.5 8417.97 9712.77 7161.7 9712.77 5612.01C9712.77 4062.32 8456.5 2806.05 6906.81 2806.05ZM8955.82 8118.91L9486.09 8649.18C9570.38 8733.47 9707.04 8733.47 9791.34 8649.18L9943.96 8496.55C10028.3 8412.26 10028.3 8275.6 9943.96 8191.3L9413.7 7661.04C9276.69 7828.46 9123.24 7981.9 8955.82 8118.91ZM10078.1 8972.92C9997.55 9053.51 9993.51 9182.88 10068.9 9268.35L11536.5 10931.6C11754 11178.2 12134.5 11190 12367 10957.5C12609.4 10715.1 12584.5 10315 12313.9 10104.5L10570.2 8748.28C10484.2 8681.45 10362 8689.06 10285 8766.03L10078.1 8972.92Z" fill="#00BBFF"/>
</svg>
