<svg width="520" height="670" viewBox="0 0 520 670" fill="none" xmlns="http://www.w3.org/2000/svg">
<path fill-rule="evenodd" clip-rule="evenodd" d="M54.8115 80.1894C54.8115 75.7614 58.4011 72.1719 62.8291 72.1719H463.707C468.135 72.1719 471.725 75.7614 471.725 80.1894V304.681C471.725 309.109 475.315 312.699 479.743 312.699C484.171 312.699 487.76 309.109 487.76 304.681V80.1894C487.76 66.9055 476.991 56.1367 463.707 56.1367H62.8291C49.5451 56.1367 38.7764 66.9055 38.7764 80.1894V360.804C38.7764 374.088 49.5451 384.857 62.8291 384.857H184.461C183.575 387.365 183.093 390.063 183.093 392.875V424.945C183.093 438.229 193.861 448.998 207.145 448.998H311.374C324.658 448.998 335.426 438.229 335.426 424.945V384.857H351.461C355.889 384.857 359.479 381.267 359.479 376.839C359.479 372.411 355.889 368.822 351.461 368.822H62.8291C58.4011 368.822 54.8115 365.232 54.8115 360.804V344.769H187.101C191.529 344.769 195.119 341.18 195.119 336.752C195.119 332.324 191.529 328.734 187.101 328.734H54.8115V80.1894ZM207.145 384.857C202.717 384.857 199.128 388.447 199.128 392.875V424.945C199.128 429.373 202.717 432.962 207.145 432.962H311.374C315.802 432.962 319.391 429.373 319.391 424.945V384.857H207.145Z" fill="#00BBFF"/>
<path d="M305.468 193.606C308.328 190.225 307.906 185.166 304.526 182.306C301.146 179.446 296.087 179.867 293.227 183.248L255.629 227.682L237.612 203.66C234.955 200.118 229.93 199.4 226.387 202.057C222.845 204.713 222.127 209.739 224.784 213.281L242.8 237.303C248.981 245.543 261.216 245.903 267.87 238.04L305.468 193.606Z" fill="#00BBFF"/>
<path fill-rule="evenodd" clip-rule="evenodd" d="M263.268 120.277C214.56 120.277 175.075 159.763 175.075 208.471C175.075 257.178 214.56 296.664 263.268 296.664C311.976 296.664 351.461 257.178 351.461 208.471C351.461 159.763 311.976 120.277 263.268 120.277ZM191.11 208.471C191.11 168.619 223.416 136.312 263.268 136.312C303.12 136.312 335.426 168.619 335.426 208.471C335.426 248.322 303.12 280.629 263.268 280.629C223.416 280.629 191.11 248.322 191.11 208.471Z" fill="#00BBFF"/>
<path fill-rule="evenodd" clip-rule="evenodd" d="M143.005 208.471C143.005 142.051 196.849 88.207 263.268 88.207C329.688 88.207 383.532 142.051 383.532 208.471C383.532 231.512 377.052 253.041 365.815 271.333L387.423 292.941C391.43 296.948 393.728 302.018 394.316 307.244C399.54 307.22 404.792 308.891 409.189 312.311L473.961 362.689C491.627 376.429 493.253 402.545 477.427 418.37C462.251 433.547 437.416 432.772 423.216 416.678L368.702 354.896C364.82 350.496 362.827 345.053 362.692 339.583C357.238 339.119 351.912 336.8 347.738 332.626L326.13 311.017C307.838 322.254 286.31 328.734 263.268 328.734C196.849 328.734 143.005 274.89 143.005 208.471ZM263.268 104.242C205.704 104.242 159.04 150.907 159.04 208.471C159.04 266.034 205.704 312.699 263.268 312.699C320.832 312.699 367.497 266.034 367.497 208.471C367.497 150.907 320.832 104.242 263.268 104.242ZM339.379 301.59L359.076 321.287C362.207 324.418 367.284 324.418 370.415 321.287L376.084 315.618C379.215 312.487 379.215 307.41 376.084 304.279L356.387 284.582C351.298 290.801 345.598 296.501 339.379 301.59ZM381.068 333.313C378.075 336.306 377.925 341.112 380.726 344.286L435.24 406.069C443.32 415.227 457.452 415.668 466.089 407.032C475.095 398.026 474.169 383.165 464.116 375.346L399.345 324.968C396.153 322.486 391.612 322.769 388.753 325.628L381.068 333.313Z" fill="#00BBFF"/>
<path d="M90.1411 521.814V532.037H62.4051V521.814H90.1411ZM65.6142 494.399V561.148H53.3279V494.399H65.6142ZM99.3559 494.399V561.148H87.1612V494.399H99.3559ZM148.822 550.925V561.148H119.848V550.925H148.822ZM123.378 494.399V561.148H111.092V494.399H123.378ZM144.925 521.814V531.762H119.848V521.814H144.925ZM148.639 494.399V504.668H119.848V494.399H148.639ZM193.796 550.925V561.148H166.06V550.925H193.796ZM169.59 494.399V561.148H157.303V494.399H169.59ZM224.558 537.034H210.667V526.765H224.558C226.666 526.765 228.363 526.322 229.646 525.435C230.961 524.519 231.908 523.25 232.489 521.63C233.1 520.011 233.406 518.177 233.406 516.129C233.406 514.142 233.1 512.278 232.489 510.536C231.908 508.763 230.961 507.342 229.646 506.272C228.363 505.203 226.666 504.668 224.558 504.668H214.426V561.148H202.14V494.399H224.558C228.989 494.399 232.779 495.331 235.927 497.195C239.106 499.06 241.551 501.627 243.262 504.897C244.974 508.137 245.829 511.85 245.829 516.037C245.829 520.377 244.974 524.106 243.262 527.223C241.551 530.341 239.106 532.755 235.927 534.467C232.779 536.178 228.989 537.034 224.558 537.034ZM293.783 561.148H282.093L282.184 550.925H293.783C297.175 550.925 299.85 550.314 301.806 549.091C303.792 547.838 305.198 545.897 306.023 543.269C306.879 540.641 307.307 537.248 307.307 533.092V522.41C307.307 519.231 307.078 516.526 306.619 514.295C306.161 512.034 305.412 510.2 304.373 508.794C303.334 507.388 301.974 506.349 300.293 505.676C298.612 505.004 296.534 504.668 294.058 504.668H281.863V494.399H294.058C297.909 494.399 301.393 495.025 304.511 496.278C307.628 497.501 310.302 499.304 312.533 501.688C314.795 504.072 316.522 507.021 317.714 510.536C318.906 514.02 319.502 518.009 319.502 522.501V533.092C319.502 537.584 318.906 541.573 317.714 545.057C316.522 548.541 314.795 551.475 312.533 553.859C310.302 556.243 307.597 558.062 304.419 559.315C301.271 560.537 297.726 561.148 293.783 561.148ZM289.153 494.399V561.148H276.866V494.399H289.153ZM367.776 550.925V561.148H338.802V550.925H367.776ZM342.332 494.399V561.148H330.046V494.399H342.332ZM363.879 521.814V531.762H338.802V521.814H363.879ZM367.593 494.399V504.668H338.802V494.399H367.593ZM404.727 543.773C404.727 542.459 404.589 541.298 404.314 540.289C404.07 539.25 403.581 538.303 402.847 537.447C402.114 536.591 401.059 535.751 399.684 534.925C398.309 534.07 396.536 533.198 394.366 532.312C391.799 531.273 389.369 530.173 387.077 529.011C384.785 527.819 382.737 526.444 380.934 524.885C379.13 523.327 377.709 521.493 376.67 519.384C375.661 517.275 375.157 514.815 375.157 512.003C375.157 509.252 375.646 506.746 376.624 504.484C377.633 502.192 379.054 500.236 380.888 498.616C382.722 496.966 384.892 495.698 387.398 494.811C389.934 493.925 392.731 493.482 395.787 493.482C400.097 493.482 403.795 494.383 406.882 496.187C409.969 497.99 412.352 500.435 414.033 503.522C415.714 506.609 416.555 510.093 416.555 513.974H404.314C404.314 511.957 404.009 510.169 403.397 508.61C402.817 507.021 401.885 505.783 400.601 504.897C399.317 504.011 397.667 503.568 395.65 503.568C393.755 503.568 392.196 503.95 390.974 504.714C389.751 505.447 388.849 506.456 388.269 507.739C387.688 508.993 387.398 510.429 387.398 512.049C387.398 513.21 387.657 514.265 388.177 515.212C388.727 516.129 389.476 516.969 390.423 517.734C391.371 518.498 392.517 519.231 393.862 519.934C395.237 520.607 396.765 521.264 398.446 521.905C401.533 523.067 404.238 524.35 406.561 525.756C408.884 527.132 410.809 528.69 412.337 530.433C413.896 532.144 415.057 534.085 415.821 536.255C416.585 538.425 416.967 540.9 416.967 543.682C416.967 546.432 416.494 548.938 415.546 551.2C414.599 553.462 413.223 555.403 411.42 557.022C409.617 558.642 407.432 559.895 404.864 560.782C402.328 561.637 399.501 562.065 396.383 562.065C393.388 562.065 390.53 561.637 387.81 560.782C385.121 559.895 382.737 558.566 380.659 556.793C378.58 555.021 376.945 552.789 375.753 550.1C374.561 547.38 373.965 544.186 373.965 540.518H386.206C386.206 542.566 386.435 544.339 386.893 545.836C387.352 547.303 388.04 548.495 388.956 549.412C389.873 550.299 390.974 550.956 392.257 551.384C393.541 551.781 394.993 551.98 396.612 551.98C398.538 551.98 400.097 551.628 401.289 550.925C402.481 550.222 403.352 549.259 403.902 548.037C404.452 546.784 404.727 545.363 404.727 543.773ZM438.79 494.399V561.148H426.503V494.399H438.79ZM472.027 494.399L450.067 527.086L436.772 543.544L434.48 530.983L443.328 517L457.127 494.399H472.027ZM458.136 561.148L442.411 530.066L451.168 521.722L472.669 561.148H458.136Z" fill="#00BBFF"/>
</svg>
