<svg width="13990" height="18049" viewBox="0 0 13990 18049" fill="none" xmlns="http://www.w3.org/2000/svg">
<path fill-rule="evenodd" clip-rule="evenodd" d="M1470.88 2158.52C1470.88 2039.31 1567.52 1942.67 1686.73 1942.67H12478.9C12598.1 1942.67 12694.7 2039.31 12694.7 2158.52V8202.13C12694.7 8321.33 12791.4 8417.97 12910.6 8417.97C13029.8 8417.97 13126.4 8321.33 13126.4 8202.13V2158.52C13126.4 1800.89 12836.5 1510.99 12478.9 1510.99H1686.73C1329.11 1510.99 1039.2 1800.89 1039.2 2158.52V9713.03C1039.2 10070.7 1329.11 10360.6 1686.73 10360.6H4961.22C4937.36 10428.1 4924.38 10500.7 4924.38 10576.4V11439.8C4924.38 11797.4 5214.29 12087.3 5571.91 12087.3H8377.87C8735.49 12087.3 9025.4 11797.4 9025.4 11439.8V10360.6H9457.09C9576.29 10360.6 9672.93 10263.9 9672.93 10144.7C9672.93 10025.5 9576.29 9928.87 9457.09 9928.87H1686.73C1567.52 9928.87 1470.88 9832.24 1470.88 9713.03V9281.34H5032.3C5151.51 9281.34 5248.14 9184.71 5248.14 9065.5C5248.14 8946.29 5151.51 8849.66 5032.3 8849.66H1470.88V2158.52ZM5571.91 10360.6C5452.7 10360.6 5356.06 10457.2 5356.06 10576.4V11439.8C5356.06 11559 5452.7 11655.6 5571.91 11655.6H8377.87C8497.08 11655.6 8593.71 11559 8593.71 11439.8V10360.6H5571.91Z" fill="#00BBFF"/>
<path d="M8218.88 5211.82C8295.88 5120.82 8284.53 4984.63 8193.53 4907.63C8102.53 4830.63 7966.33 4841.98 7889.33 4932.98L6877.14 6129.21L6392.11 5482.5C6320.59 5387.14 6185.3 5367.81 6089.93 5439.33C5994.56 5510.86 5975.24 5646.15 6046.76 5741.52L6531.79 6388.22C6698.17 6610.06 7027.56 6619.74 7206.68 6408.05L8218.88 5211.82Z" fill="#00BBFF"/>
<path fill-rule="evenodd" clip-rule="evenodd" d="M7082.81 3237.73C5771.53 3237.73 4708.53 4300.73 4708.53 5612.01C4708.53 6923.28 5771.53 7986.28 7082.81 7986.28C8394.09 7986.28 9457.09 6923.28 9457.09 5612.01C9457.09 4300.73 8394.09 3237.73 7082.81 3237.73ZM5140.22 5612.01C5140.22 4539.15 6009.95 3669.42 7082.81 3669.42C8155.67 3669.42 9025.4 4539.15 9025.4 5612.01C9025.4 6684.87 8155.67 7554.6 7082.81 7554.6C6009.95 7554.6 5140.22 6684.87 5140.22 5612.01Z" fill="#00BBFF"/>
<path fill-rule="evenodd" clip-rule="evenodd" d="M3845.16 5612.01C3845.16 3823.9 5294.71 2374.36 7082.81 2374.36C8870.91 2374.36 10320.5 3823.9 10320.5 5612.01C10320.5 6232.32 10146 6811.9 9843.49 7304.34L10425.2 7886.06C10533.1 7993.95 10595 8130.44 10610.8 8271.13C10751.4 8270.47 10892.8 8315.44 11011.2 8407.53L12754.9 9763.76C13230.5 10133.7 13274.3 10836.7 12848.2 11262.8C12439.7 11671.4 11771.1 11650.5 11388.8 11217.2L9921.22 9553.96C9816.72 9435.52 9763.07 9288.98 9759.43 9141.73C9612.59 9129.23 9469.2 9066.79 9356.84 8954.43L8775.12 8372.7C8282.68 8675.21 7703.12 8849.66 7082.81 8849.66C5294.71 8849.66 3845.16 7400.11 3845.16 5612.01ZM7082.81 2806.05C5533.12 2806.05 4276.85 4062.32 4276.85 5612.01C4276.85 7161.7 5533.12 8417.97 7082.81 8417.97C8632.5 8417.97 9888.77 7161.7 9888.77 5612.01C9888.77 4062.32 8632.5 2806.05 7082.81 2806.05ZM9131.82 8118.91L9662.09 8649.18C9746.38 8733.47 9883.04 8733.47 9967.34 8649.18L10120 8496.55C10204.3 8412.26 10204.3 8275.6 10120 8191.3L9589.7 7661.04C9452.69 7828.46 9299.24 7981.9 9131.82 8118.91ZM10254.1 8972.92C10173.5 9053.51 10169.5 9182.88 10244.9 9268.35L11712.5 10931.6C11930 11178.2 12310.5 11190 12543 10957.5C12785.4 10715.1 12760.5 10315 12489.9 10104.5L10746.2 8748.28C10660.2 8681.45 10538 8689.06 10461 8766.03L10254.1 8972.92Z" fill="#00BBFF"/>
<path d="M2412.35 14061.8V14337.6H1664.06V14061.8H2412.35ZM1750.64 13322.2V15123H1419.16V13322.2H1750.64ZM2660.96 13322.2V15123H2331.95V13322.2H2660.96ZM3995.51 14847.2V15123H3213.83V14847.2H3995.51ZM3309.06 13322.2V15123H2977.59V13322.2H3309.06ZM3890.38 14061.8V14330.2H3213.83V14061.8H3890.38ZM3990.56 13322.2V13599.2H3213.83V13322.2H3990.56ZM5208.86 14847.2V15123H4460.57V14847.2H5208.86ZM4555.8 13322.2V15123H4224.33V13322.2H4555.8ZM6038.78 14472.4H5664.02V14195.4H6038.78C6095.67 14195.4 6141.44 14183.4 6176.07 14159.5C6211.53 14134.8 6237.09 14100.5 6252.75 14056.8C6269.25 14013.1 6277.49 13963.7 6277.49 13908.4C6277.49 13854.8 6269.25 13804.5 6252.75 13757.5C6237.09 13709.7 6211.53 13671.4 6176.07 13642.5C6141.44 13613.6 6095.67 13599.2 6038.78 13599.2H5765.44V15123H5433.96V13322.2H6038.78C6158.34 13322.2 6260.59 13347.3 6345.52 13397.6C6431.27 13447.9 6497.24 13517.2 6543.41 13605.4C6589.59 13692.8 6612.68 13793 6612.68 13905.9C6612.68 14023 6589.59 14123.6 6543.41 14207.7C6497.24 14291.8 6431.27 14357 6345.52 14403.2C6260.59 14449.3 6158.34 14472.4 6038.78 14472.4ZM7906.42 15123H7591.02L7593.49 14847.2H7906.42C7997.94 14847.2 8070.09 14830.7 8122.86 14797.7C8176.46 14763.9 8214.39 14711.5 8236.65 14640.6C8259.74 14569.7 8271.29 14478.2 8271.29 14366.1V14077.9C8271.29 13992.1 8265.1 13919.1 8252.73 13858.9C8240.36 13797.9 8220.16 13748.5 8192.13 13710.5C8164.09 13672.6 8127.4 13644.6 8082.05 13626.4C8036.7 13608.3 7980.63 13599.2 7913.84 13599.2H7584.84V13322.2H7913.84C8017.73 13322.2 8111.73 13339.1 8195.84 13372.9C8279.94 13405.8 8352.09 13454.5 8412.29 13518.8C8473.3 13583.1 8519.89 13662.7 8552.05 13757.5C8584.21 13851.5 8600.29 13959.1 8600.29 14080.3V14366.1C8600.29 14487.3 8584.21 14594.9 8552.05 14688.9C8519.89 14782.9 8473.3 14862 8412.29 14926.3C8352.09 14990.7 8279.12 15039.7 8193.36 15073.5C8108.43 15106.5 8012.78 15123 7906.42 15123ZM7781.49 13322.2V15123H7450.02V13322.2H7781.49ZM9902.68 14847.2V15123H9121V14847.2H9902.68ZM9216.24 13322.2V15123H8884.76V13322.2H9216.24ZM9797.55 14061.8V14330.2H9121V14061.8H9797.55ZM9897.74 13322.2V13599.2H9121V13322.2H9897.74ZM10899.6 14654.2C10899.6 14618.8 10895.9 14587.4 10888.5 14560.2C10881.9 14532.2 10868.7 14506.6 10848.9 14483.6C10829.1 14460.5 10800.6 14437.8 10763.5 14415.5C10726.4 14392.4 10678.6 14368.9 10620.1 14345C10550.8 14317 10485.2 14287.3 10423.4 14256C10361.6 14223.8 10306.3 14186.7 10257.7 14144.7C10209 14102.6 10170.7 14053.1 10142.6 13996.2C10115.4 13939.3 10101.8 13873 10101.8 13797.1C10101.8 13722.9 10115 13655.3 10141.4 13594.3C10168.6 13532.4 10206.9 13479.6 10256.4 13435.9C10305.9 13391.4 10364.4 13357.2 10432.1 13333.3C10500.5 13309.4 10575.9 13297.4 10658.4 13297.4C10774.7 13297.4 10874.4 13321.7 10957.7 13370.4C11041 13419 11105.3 13485 11150.7 13568.3C11196 13651.6 11218.7 13745.6 11218.7 13850.3H10888.5C10888.5 13795.9 10880.2 13747.6 10863.7 13705.6C10848 13662.7 10822.9 13629.3 10788.3 13605.4C10753.6 13581.5 10709.1 13569.5 10654.7 13569.5C10603.6 13569.5 10561.5 13579.8 10528.5 13600.4C10495.5 13620.2 10471.2 13647.4 10455.6 13682.1C10439.9 13715.9 10432.1 13754.6 10432.1 13798.3C10432.1 13829.7 10439.1 13858.1 10453.1 13883.7C10467.9 13908.4 10488.1 13931.1 10513.7 13951.7C10539.2 13972.3 10570.2 13992.1 10606.4 14011.1C10643.6 14029.2 10684.8 14046.9 10730.1 14064.3C10813.4 14095.6 10886.4 14130.2 10949.1 14168.2C11011.7 14205.3 11063.7 14247.3 11104.9 14294.3C11147 14340.5 11178.3 14392.8 11198.9 14451.4C11219.5 14509.9 11229.8 14576.7 11229.8 14651.8C11229.8 14726 11217 14793.6 11191.5 14854.6C11165.9 14915.6 11128.8 14968 11080.2 15011.7C11031.5 15055.4 10972.6 15089.2 10903.3 15113.1C10834.9 15136.2 10758.6 15147.7 10674.5 15147.7C10593.7 15147.7 10516.6 15136.2 10443.2 15113.1C10370.6 15089.2 10306.3 15053.3 10250.2 15005.5C10194.2 14957.7 10150.1 14897.5 10117.9 14824.9C10085.7 14751.5 10069.7 14665.4 10069.7 14566.4H10399.9C10399.9 14621.7 10406.1 14669.5 10418.4 14709.9C10430.8 14749.5 10449.4 14781.6 10474.1 14806.4C10498.8 14830.3 10528.5 14848 10563.2 14859.6C10597.8 14870.3 10637 14875.6 10680.7 14875.6C10732.6 14875.6 10774.7 14866.1 10806.8 14847.2C10839 14828.2 10862.5 14802.2 10877.3 14769.3C10892.2 14735.5 10899.6 14697.1 10899.6 14654.2ZM11818.6 13322.2V15123H11487.1V13322.2H11818.6ZM12715.3 13322.2L12122.8 14204L11764.1 14648.1L11702.3 14309.2L11941 13931.9L12313.3 13322.2H12715.3ZM12340.5 15123L11916.3 14284.4L12152.5 14059.3L12732.6 15123H12340.5Z" fill="#00BBFF"/>
</svg>
